<svg width="310" height="36" viewBox="0 0 310 36" fill="none" xmlns="http://www.w3.org/2000/svg">
<g style="mix-blend-mode:luminosity" clip-path="url(#clip0_1020_43)">
<path d="M17.2762 17.9313L15.7628 1.18164C14.0322 1.78185 12.6043 3.03669 11.7843 4.67809C10.9642 6.31949 10.8169 8.21731 11.3739 9.96611C10.6219 9.42456 9.77046 9.0376 8.8686 8.82754C7.96674 8.61748 7.03233 8.58848 6.11924 8.74222C5.20615 8.89595 4.33245 9.22938 3.54853 9.72327C2.7646 10.2172 2.08597 10.8617 1.55176 11.6198L17.2762 17.9313Z" fill="#B9B8B8"/>
<path d="M16.8298 19.4791L0.5 15.6406C0.514899 17.1066 0.986945 18.5311 1.84999 19.7146C2.71303 20.8981 3.92382 21.7813 5.31268 22.2404C5.99855 22.4698 6.71603 22.5901 7.43903 22.5969C6.69206 23.1435 6.06015 23.8326 5.57957 24.6247C5.09898 25.4168 4.7792 26.2962 4.63858 27.2125C4.49796 28.1288 4.53927 29.064 4.76013 29.9642C4.981 30.8645 5.37707 31.7122 5.92561 32.4586L16.8298 19.4791Z" fill="#B9B8B8"/>
<path d="M18.1919 20.2607L9.58057 34.6967C10.9755 35.1199 12.4672 35.0975 13.8488 34.6326C15.2305 34.1677 16.4336 33.2834 17.2914 32.1023C17.718 31.5184 18.05 30.8707 18.2752 30.1831C18.5673 31.064 19.0302 31.8783 19.6375 32.5791C20.2447 33.2799 20.9842 33.8533 21.8134 34.2665C22.6426 34.6797 23.5451 34.9243 24.469 34.9865C25.3929 35.0486 26.32 34.9269 27.1968 34.6284L18.1919 20.2607Z" fill="#B9B8B8"/>
<path d="M18.9409 17.9317L34.3702 11.3396C33.2719 9.87047 31.6445 8.88963 29.8351 8.6062C28.0257 8.32278 26.1774 8.7592 24.6843 9.8224C24.9609 8.93981 25.0611 8.01118 24.9791 7.08972C24.8971 6.16826 24.6345 5.27208 24.2064 4.45252C23.7783 3.63296 23.1931 2.90614 22.4843 2.31369C21.7756 1.72125 20.9572 1.27482 20.076 1L18.9409 17.9317Z" fill="#B9B8B8"/>
<path d="M19.418 19.3575L30.4432 32.0259C31.276 30.825 31.7154 29.394 31.7005 27.9314C31.6856 26.4689 31.2171 25.0472 30.36 23.8635C29.9392 23.2803 29.4283 22.7682 28.8466 22.3463C29.7726 22.3404 30.6882 22.1506 31.5406 21.7878C32.3929 21.425 33.1651 20.8965 33.8125 20.2327C34.4598 19.5689 34.9695 18.7831 35.3121 17.9206C35.6547 17.0582 35.8233 16.1362 35.8083 15.208L19.418 19.3575Z" fill="#B9B8B8"/>
<path d="M44.3818 5.4988H53.8029V8.22973H47.5903V18.4707H55.846V5.06641H59.2361V11.302H60.863V5.06641H64.2455V25.169H60.863V14.0936H59.2361V25.169H55.846V21.3078H44.3818V5.4988Z" fill="#B9B8B8"/>
<path d="M67.6201 5.06641V7.85802H74.264L67.6201 14.5715L69.9584 16.6425L74.7862 11.6661L79.561 16.6425L81.9295 14.5715L75.5731 7.85802H81.9295V5.06641H67.6201Z" fill="#B9B8B8"/>
<path d="M69.6787 17.8633V25.1685H87.7338V22.1493H72.8342V17.8633H69.6787Z" fill="#B9B8B8"/>
<path d="M80.8628 9.30677V11.8708H84.3437V19.5553H87.7337V4.60352H84.3437V9.30677H80.8628Z" fill="#B9B8B8"/>
<path d="M91.9108 5.06626V7.85787H102.86V11.8708H99.1071V9.30677H95.717V11.8708H91.3433V14.5714H108.384V15.8762H111.82V10.7102H114.605V7.85787H111.82V4.60352H108.384V11.8708H106.205V5.06626H91.9108Z" fill="#B9B8B8"/>
<path d="M102.49 15.2998C97.344 15.2998 93.167 17.5073 93.167 20.2382C93.167 22.9691 97.344 25.1691 102.49 25.1691C107.635 25.1691 111.812 22.9995 111.812 20.2382C111.812 17.477 107.635 15.2998 102.49 15.2998ZM102.49 22.605C99.3342 22.605 96.7765 21.543 96.7765 20.2382C96.7765 18.9335 99.3342 17.8638 102.49 17.8638C105.645 17.8638 108.203 18.9259 108.203 20.2382C108.203 21.5506 105.683 22.605 102.49 22.605V22.605Z" fill="#B9B8B8"/>
<path d="M133.863 4.61133V6.8871H128.914C127.396 5.59243 125.458 4.89902 123.465 4.93752C119.447 4.93752 116.178 7.5319 116.178 10.7256C116.178 13.9192 119.447 16.5212 123.465 16.5212C125.587 16.567 127.642 15.7741 129.186 14.3137H133.863V16.4605H137.018V4.61133H133.863ZM123.465 13.7903C121.294 13.7903 119.53 12.4096 119.53 10.6952C119.53 8.98081 121.294 7.60776 123.465 7.60776C125.637 7.60776 127.408 8.98839 127.408 10.6952C127.408 12.402 125.645 13.7903 123.465 13.7903ZM133.863 11.689H130.654C130.724 11.3624 130.76 11.0293 130.76 10.6952C130.76 10.2745 130.701 9.85577 130.586 9.45113H133.87L133.863 11.689Z" fill="#B9B8B8"/>
<path d="M118.176 17.6279V20.283H133.863V25.1304H137.018V17.6279H118.176Z" fill="#B9B8B8"/>
<path d="M147.226 5.87012L139.621 18.6675L142.451 20.2454L147.226 12.3864L152.198 20.2454L155.119 18.6675L147.226 5.87012Z" fill="#B9B8B8"/>
<path d="M159.5 5.02832H156.345V25.131H159.5V5.02832Z" fill="#B9B8B8"/>
<path d="M45.3956 32.9972V29.2042H46.6593C46.8905 29.1841 47.1231 29.2197 47.3377 29.3081C47.5523 29.3965 47.7426 29.5352 47.8928 29.7125C48.1678 30.1351 48.3004 30.6349 48.2711 31.1386C48.2708 31.3119 48.253 31.4847 48.2182 31.6545C48.173 31.9262 48.0697 32.185 47.9155 32.4131C47.7576 32.6518 47.5224 32.8287 47.2496 32.9137C47.0583 32.9711 46.8589 32.9967 46.6593 32.9896L45.3956 32.9972ZM44.6768 33.5661H46.7804C47.1732 33.5937 47.565 33.5011 47.9041 33.3007C48.2433 33.1002 48.5137 32.8013 48.6798 32.4434C48.8896 31.9977 48.9956 31.5101 48.99 31.0173C49.0163 30.4156 48.8286 29.8242 48.4603 29.3484C48.2603 29.0994 48.0048 28.9011 47.7143 28.7694C47.4238 28.6376 47.1065 28.5761 46.788 28.5898H44.6768V33.5661Z" fill="#B9B8B8"/>
<path d="M50.9724 31.5407L51.8199 29.356L52.6296 31.5407H50.9724ZM49.459 33.5661H50.2157L50.7908 32.0489H52.8642L53.4166 33.5661H54.1733L52.2588 28.6201H51.4491L49.459 33.5661Z" fill="#B9B8B8"/>
<path d="M54.8018 28.6201H58.6534V29.227H55.4979V30.7442H58.4188V31.3131H55.4979V32.9972H58.6988V33.5813H54.8018V28.6201Z" fill="#B9B8B8"/>
<path d="M62.1644 32.102C62.1852 32.435 62.1173 32.7675 61.9677 33.0655C61.8165 33.2898 61.6066 33.4679 61.3609 33.5804C61.1153 33.6928 60.8434 33.7351 60.5753 33.7027C60.2136 33.7137 59.8579 33.6072 59.5614 33.3992C59.4085 33.2696 59.2898 33.1042 59.2159 32.9176C59.142 32.731 59.1151 32.5291 59.1376 32.3296V31.9731H59.8111V32.3296C59.7955 32.5545 59.8658 32.7769 60.0078 32.9517C60.086 33.026 60.1791 33.0826 60.2809 33.118C60.3826 33.1533 60.4908 33.1664 60.598 33.1565C60.7459 33.1774 60.8967 33.154 61.0314 33.0892C61.166 33.0244 61.2786 32.9211 61.3548 32.7924C61.442 32.5155 61.478 32.225 61.4607 31.9352V28.6201H62.1796L62.1644 32.102Z" fill="#B9B8B8"/>
<path d="M63.2466 28.6201H67.0907V29.227H63.9428V30.7442H66.8637V31.3131H63.9428V32.9972H67.1436V33.5813H63.2466V28.6201Z" fill="#B9B8B8"/>
<path d="M70.3518 33.1109C70.085 33.1362 69.8161 33.0986 69.5665 33.0011C69.3168 32.9036 69.0934 32.749 68.914 32.5495C68.6115 32.1514 68.4539 31.6615 68.4675 31.1613C68.4472 30.8791 68.4828 30.5957 68.5725 30.3275C68.6621 30.0593 68.8039 29.8115 68.9897 29.5986C69.1642 29.4221 69.3733 29.2838 69.6038 29.1924C69.8344 29.101 70.0813 29.0585 70.3291 29.0676C70.5761 29.0547 70.823 29.0955 71.0528 29.1872C71.2827 29.2788 71.4901 29.4192 71.6609 29.5986C71.9969 29.9892 72.1703 30.4944 72.1452 31.0096C72.1572 31.5296 72.0092 32.0408 71.7214 32.4736C71.5687 32.6908 71.3619 32.8639 71.1215 32.9757C70.8811 33.0875 70.6157 33.1341 70.3518 33.1109V33.1109ZM70.2836 28.491C69.8995 28.4668 69.5153 28.5371 69.1645 28.6957C68.8137 28.8544 68.5069 29.0966 68.2708 29.4013C67.9076 29.8976 67.7187 30.5005 67.7335 31.1158C67.7106 31.782 67.9343 32.4332 68.3616 32.944C68.8958 33.4473 69.6056 33.7204 70.3385 33.7048C71.0714 33.6892 71.769 33.3861 72.2814 32.8605C72.6927 32.3397 72.9048 31.6886 72.8792 31.0247C72.9182 30.4181 72.7442 29.8169 72.3873 29.3255C72.1266 29.0307 71.8003 28.8016 71.4348 28.6566C71.0694 28.5116 70.675 28.4549 70.2836 28.491V28.491Z" fill="#B9B8B8"/>
<path d="M73.6587 28.6201H74.5062L77.1396 32.6179V28.6201H77.8206V33.5661H77.0185L74.3473 29.5759V33.5661H73.6587V28.6201Z" fill="#B9B8B8"/>
<path d="M82.8376 28.6201H83.8668L85.3802 32.8075L86.8936 28.6201H87.9152V33.5661H87.2266V30.6456C87.2266 30.5469 87.2266 30.38 87.2266 30.1449C87.2266 29.9097 87.2266 29.667 87.2266 29.3863L85.7131 33.5585H85.0094L83.496 29.3863V29.538C83.496 29.6594 83.496 29.849 83.496 30.0918C83.496 30.3345 83.496 30.5242 83.496 30.638V33.5585H82.8149L82.8376 28.6201Z" fill="#B9B8B8"/>
<path d="M88.9746 28.6201H92.8187V29.227H89.6556V30.7442H92.5765V31.3131H89.6556V32.9972H92.8641V33.5813H88.9595L88.9746 28.6201Z" fill="#B9B8B8"/>
<path d="M97.5635 28.6201V29.2042H95.7852V33.5661H95.0285V29.2042H93.2578V28.6201H97.5635Z" fill="#B9B8B8"/>
<path d="M98.9782 30.8883V29.2043H100.658C100.852 29.1955 101.046 29.2291 101.226 29.3029C101.353 29.3724 101.458 29.4774 101.528 29.6052C101.598 29.733 101.629 29.8782 101.619 30.0235C101.632 30.1513 101.612 30.2802 101.562 30.3983C101.512 30.5164 101.433 30.6197 101.332 30.6987C101.103 30.8341 100.84 30.9 100.575 30.8883H98.9782ZM98.2593 33.5662H98.9782V31.4421H100.537C100.749 31.429 100.96 31.4626 101.157 31.5407C101.274 31.601 101.371 31.6942 101.435 31.8087C101.5 31.9233 101.529 32.0543 101.521 32.1855L101.581 33.0124C101.572 33.1412 101.572 33.2705 101.581 33.3993C101.591 33.4571 101.609 33.5133 101.634 33.5662H102.52V33.4599C102.459 33.4319 102.406 33.3897 102.365 33.3369C102.325 33.2841 102.297 33.2222 102.285 33.1565C102.257 33.0166 102.242 32.8744 102.24 32.7317V32.0717C102.245 31.8482 102.181 31.6284 102.058 31.4421C101.935 31.2998 101.775 31.1947 101.596 31.1387C101.814 31.0334 102.004 30.8773 102.149 30.6835C102.293 30.4579 102.362 30.1923 102.346 29.9249C102.362 29.6743 102.298 29.425 102.161 29.2144C102.025 29.0037 101.824 28.8431 101.589 28.7567C101.28 28.6375 100.951 28.5808 100.62 28.5898H98.229L98.2593 33.5662Z" fill="#B9B8B8"/>
<path d="M105.751 33.1114C105.484 33.1379 105.215 33.1009 104.965 33.0033C104.715 32.9058 104.492 32.7504 104.313 32.55C104.011 32.1519 103.853 31.662 103.867 31.1618C103.846 30.8796 103.882 30.5962 103.972 30.328C104.061 30.0598 104.203 29.812 104.389 29.5991C104.563 29.4245 104.771 29.2879 105 29.1979C105.229 29.1078 105.475 29.0662 105.721 29.0757C105.969 29.0622 106.217 29.1027 106.448 29.1943C106.68 29.286 106.888 29.4267 107.06 29.6067C107.396 29.9973 107.57 30.5025 107.544 31.0176C107.556 31.5377 107.408 32.0489 107.121 32.4817C106.967 32.6975 106.76 32.8691 106.52 32.9796C106.279 33.09 106.014 33.1355 105.751 33.1114ZM105.683 28.4915C105.299 28.4673 104.915 28.5376 104.564 28.6963C104.213 28.8549 103.906 29.0971 103.67 29.4019C103.307 29.8981 103.118 30.501 103.133 31.1163C103.111 31.781 103.332 32.4308 103.753 32.9445C104 33.2001 104.299 33.3999 104.629 33.5307C104.959 33.6615 105.313 33.7203 105.668 33.7031C106.045 33.7268 106.423 33.6632 106.772 33.5172C107.121 33.3712 107.432 33.1467 107.681 32.861C108.092 32.3402 108.304 31.6891 108.278 31.0252C108.303 30.4226 108.119 29.83 107.756 29.3488C107.5 29.0551 107.18 28.8249 106.82 28.6762C106.46 28.5274 106.071 28.4642 105.683 28.4915V28.4915Z" fill="#B9B8B8"/>
<path d="M112.319 30.0466C112.331 30.175 112.31 30.3044 112.259 30.4225C112.207 30.5406 112.126 30.6436 112.024 30.7217C111.795 30.8559 111.532 30.9217 111.267 30.9114H109.867V29.2045H111.267C111.487 29.1927 111.706 29.2289 111.91 29.3107C112.043 29.3792 112.153 29.4856 112.226 29.6166C112.299 29.7476 112.331 29.8972 112.319 30.0466ZM109.133 33.5664H109.852V31.4803H111.487C111.703 31.4972 111.92 31.4674 112.124 31.3928C112.327 31.3182 112.513 31.2006 112.667 31.0479C112.921 30.7741 113.059 30.4126 113.053 30.039C113.064 29.8443 113.031 29.6497 112.956 29.4697C112.882 29.2897 112.767 29.129 112.622 28.9997C112.302 28.7392 111.898 28.6043 111.487 28.6204H109.133V33.5664Z" fill="#B9B8B8"/>
<path d="M116.277 33.1114C116.01 33.1367 115.741 33.0991 115.492 33.0016C115.242 32.9041 115.019 32.7495 114.839 32.55C114.537 32.1519 114.379 31.662 114.393 31.1618C114.372 30.8796 114.408 30.5962 114.498 30.328C114.587 30.0598 114.729 29.812 114.915 29.5991C115.09 29.4239 115.299 29.287 115.53 29.197C115.76 29.1069 116.007 29.0656 116.254 29.0757C116.501 29.0628 116.748 29.1036 116.978 29.1953C117.208 29.2869 117.415 29.4272 117.586 29.6067C117.922 29.9973 118.095 30.5025 118.07 31.0176C118.082 31.5377 117.934 32.0489 117.647 32.4817C117.493 32.6975 117.286 32.8691 117.045 32.9796C116.805 33.09 116.54 33.1355 116.277 33.1114ZM116.209 28.4915C115.825 28.4673 115.44 28.5376 115.09 28.6963C114.739 28.8549 114.432 29.0971 114.196 29.4019C113.833 29.8981 113.644 30.501 113.659 31.1163C113.637 31.781 113.858 32.4308 114.279 32.9445C114.527 33.2007 114.827 33.4008 115.159 33.5316C115.49 33.6625 115.845 33.7209 116.201 33.7031C116.571 33.7198 116.94 33.6527 117.281 33.507C117.621 33.3612 117.925 33.1404 118.169 32.861C118.58 32.3402 118.792 31.6891 118.766 31.0252C118.791 30.4226 118.607 29.83 118.244 29.3488C117.988 29.0551 117.668 28.8249 117.308 28.6762C116.948 28.5274 116.559 28.4642 116.171 28.4915H116.209Z" fill="#B9B8B8"/>
<path d="M119.561 28.6201H120.28V32.982H122.921V33.5661H119.561V28.6201Z" fill="#B9B8B8"/>
<path d="M123.73 28.6201H124.487V33.5661H123.73V28.6201Z" fill="#B9B8B8"/>
<path d="M129.36 28.6201V29.2042H127.582V33.5661H126.871V29.2042H125.1V28.6201H129.36Z" fill="#B9B8B8"/>
<path d="M130.503 31.5407L131.343 29.356L132.167 31.5407H130.503ZM128.989 33.5661H129.746L130.321 32.0489H132.394L132.947 33.5661H133.704L131.789 28.6201H130.979L128.989 33.5661Z" fill="#B9B8B8"/>
<path d="M134.256 28.6201H135.096L137.73 32.6179V28.6201H138.418V33.5661H137.609L134.937 29.5759V33.5661H134.256V28.6201Z" fill="#B9B8B8"/>
<path d="M147.181 28.9848C147.523 29.2647 147.743 29.6675 147.794 30.1076H147.09C147.027 29.8093 146.864 29.5416 146.628 29.349C146.342 29.1515 145.999 29.0554 145.652 29.0759C145.421 29.0653 145.19 29.1053 144.976 29.1931C144.762 29.2809 144.569 29.4143 144.411 29.5841C144.061 30.0319 143.891 30.5948 143.934 31.162C143.913 31.668 144.065 32.1662 144.366 32.573C144.52 32.7574 144.716 32.9024 144.937 32.996C145.158 33.0896 145.398 33.1293 145.637 33.1116C145.866 33.1238 146.094 33.0781 146.3 32.9787C146.506 32.8792 146.684 32.7293 146.818 32.5426C146.973 32.313 147.084 32.0555 147.143 31.784H147.839C147.789 32.2785 147.573 32.7412 147.226 33.0964C147.003 33.3102 146.74 33.4763 146.451 33.5846C146.162 33.6928 145.854 33.7409 145.546 33.726C144.995 33.7416 144.457 33.5555 144.033 33.2026C143.745 32.932 143.522 32.5997 143.381 32.2306C143.239 31.8614 143.183 31.465 143.216 31.071C143.19 30.4184 143.409 29.7799 143.829 29.2807C144.059 29.0271 144.343 28.8277 144.66 28.6966C144.976 28.5655 145.318 28.5059 145.66 28.5221C146.206 28.4876 146.746 28.6519 147.181 28.9848V28.9848Z" fill="#B9B8B8"/>
<path d="M148.815 28.6201H149.572V33.5661H148.815V28.6201Z" fill="#B9B8B8"/>
<path d="M154.475 28.6201V29.2042H152.697V33.5661H151.978V29.2042H150.208V28.6201H154.475Z" fill="#B9B8B8"/>
<path d="M154.665 28.6201H155.504L157.018 31.0021L158.531 28.6201H159.409L157.419 31.5786V33.5661H156.662V31.5786L154.665 28.6201Z" fill="#B9B8B8"/>
</g>
<rect x="179.5" width="130" height="36" rx="5" fill="#B9B8B8"/>
<path d="M173.5 18L180.25 12.8038L180.25 23.1962L173.5 18Z" fill="#B9B8B8"/>
<path d="M211.43 23.252C214.958 23.252 217.37 20.624 217.37 16.286C217.37 11.966 214.958 9.446 211.43 9.446C207.884 9.446 205.472 11.948 205.472 16.286C205.472 20.624 207.884 23.252 211.43 23.252ZM211.43 20.948C209.432 20.948 208.19 19.13 208.19 16.286C208.19 13.442 209.432 11.732 211.43 11.732C213.41 11.732 214.67 13.442 214.67 16.286C214.67 19.13 213.41 20.948 211.43 20.948ZM219.774 26.87H222.42V23.81L222.33 22.172C223.086 22.874 223.95 23.252 224.814 23.252C227.028 23.252 229.098 21.272 229.098 17.816C229.098 14.702 227.622 12.686 225.138 12.686C224.058 12.686 223.014 13.244 222.186 13.982H222.132L221.916 12.938H219.774V26.87ZM224.238 21.074C223.698 21.074 223.05 20.894 222.42 20.336V15.89C223.104 15.188 223.716 14.846 224.382 14.846C225.786 14.846 226.38 15.908 226.38 17.852C226.38 20.03 225.444 21.074 224.238 21.074ZM235.75 23.252C236.992 23.252 238.252 22.838 239.242 22.154L238.36 20.516C237.622 20.966 236.902 21.218 236.092 21.218C234.598 21.218 233.518 20.372 233.284 18.716H239.512C239.566 18.464 239.62 17.996 239.62 17.492C239.62 14.702 238.198 12.686 235.408 12.686C233.032 12.686 230.728 14.702 230.728 17.978C230.728 21.308 232.924 23.252 235.75 23.252ZM233.248 16.952C233.464 15.476 234.4 14.72 235.462 14.72C236.758 14.72 237.37 15.584 237.37 16.952H233.248ZM241.817 23H244.463V16.07C245.201 15.35 245.723 14.954 246.551 14.954C247.523 14.954 247.973 15.476 247.973 17.06V23H250.619V16.718C250.619 14.198 249.665 12.686 247.505 12.686C246.137 12.686 245.093 13.406 244.229 14.27H244.175L243.959 12.938H241.817V23ZM255.932 23H258.632L260.54 16.07C260.936 14.684 261.314 13.154 261.674 11.714H261.746C262.124 13.136 262.502 14.684 262.898 16.07L264.806 23H267.596L263.33 9.68H260.198L255.932 23ZM258.578 19.58H264.914V17.528H258.578V19.58ZM269.173 23H271.837V18.266H273.619C276.481 18.266 278.749 16.916 278.749 13.874C278.749 10.706 276.481 9.68 273.547 9.68H269.173V23ZM271.837 16.16V11.804H273.349C275.185 11.804 276.157 12.308 276.157 13.874C276.157 15.386 275.275 16.16 273.439 16.16H271.837ZM281.179 23H283.843V9.68H281.179V23Z" fill="white"/>
<defs>
<clipPath id="clip0_1020_43">
<rect width="159" height="34" fill="white" transform="translate(0.5 1)"/>
</clipPath>
</defs>
</svg>
