<svg width="337" height="39" viewBox="0 0 337 39" fill="none" xmlns="http://www.w3.org/2000/svg">
<g clip-path="url(#clip0_1018_40)">
<path d="M19.3084 19.4218L17.5665 0.208984C15.5747 0.897458 13.9313 2.33683 12.9875 4.21962C12.0436 6.1024 11.8741 8.27931 12.5151 10.2853C11.6497 9.6641 10.6697 9.22023 9.63172 8.97928C8.59373 8.73833 7.51827 8.70507 6.46736 8.88141C5.41644 9.05776 4.41087 9.44022 3.50862 10.0067C2.60637 10.5733 1.8253 11.3126 1.21045 12.1822L19.3084 19.4218Z" fill="#00A13A"/>
<path d="M18.7947 21.1969L0 16.7939C0.0171474 18.4755 0.560446 20.1095 1.55376 21.4671C2.54707 22.8246 3.94062 23.8377 5.53912 24.3642C6.32852 24.6274 7.1543 24.7654 7.98644 24.7732C7.12672 25.4002 6.39942 26.1906 5.84629 27.0992C5.29317 28.0078 4.92512 29.0165 4.76327 30.0676C4.60142 31.1187 4.64897 32.1913 4.90317 33.224C5.15737 34.2566 5.61323 35.229 6.24457 36.0851L18.7947 21.1969Z" fill="#00A13A"/>
<path d="M20.3624 22.0928L10.4512 38.6517C12.0566 39.1371 13.7735 39.1114 15.3637 38.5781C16.9539 38.0449 18.3387 37.0306 19.326 35.6758C19.8169 35.006 20.199 34.2631 20.4582 33.4743C20.7943 34.4847 21.3272 35.4187 22.0261 36.2226C22.725 37.0265 23.5761 37.6843 24.5305 38.1582C25.4849 38.6321 26.5236 38.9128 27.587 38.984C28.6503 39.0553 29.7173 38.9157 30.7264 38.5734L20.3624 22.0928Z" fill="#00A13A"/>
<path d="M21.2246 19.4217L38.9829 11.8601C37.7188 10.175 35.8457 9.04987 33.7632 8.72476C31.6806 8.39966 29.5534 8.90026 27.835 10.1198C28.1533 9.10743 28.2686 8.04224 28.1742 6.98527C28.0798 5.9283 27.7776 4.90032 27.2849 3.96024C26.7922 3.02016 26.1187 2.18645 25.3029 1.50688C24.4871 0.827312 23.5452 0.315238 22.531 0L21.2246 19.4217Z" fill="#00A13A"/>
<path d="M21.7734 21.0576L34.4629 35.589C35.4214 34.2114 35.9271 32.57 35.9099 30.8924C35.8928 29.2147 35.3536 27.584 34.3671 26.2262C33.8828 25.5573 33.2948 24.9698 32.6252 24.4859C33.691 24.4792 34.7449 24.2614 35.7259 23.8453C36.7069 23.4291 37.5956 22.8228 38.3407 22.0614C39.0858 21.3 39.6724 20.3987 40.0667 19.4094C40.461 18.4201 40.6551 17.3625 40.6378 16.2979L21.7734 21.0576Z" fill="#00A13A"/>
<path d="M50.5054 5.16005H61.3485V8.29258H54.1981V20.0396H63.7V4.66406H67.6017V11.8167H69.4742V4.66406H73.3673V27.723H69.4742V15.0188H67.6017V27.723H63.7V23.2939H50.5054V5.16005Z" fill="#242E7C"/>
<path d="M77.2515 4.66406V7.8662H84.8982L77.2515 15.567L79.9426 17.9425L85.4992 12.2343L90.9948 17.9425L93.7208 15.567L86.405 7.8662H93.7208V4.66406H77.2515Z" fill="#242E7C"/>
<path d="M79.6206 19.3438V27.7233H100.401V24.2601H83.2524V19.3438H79.6206Z" fill="#242E7C"/>
<path d="M92.4927 9.52773V12.4688H96.499V21.2834H100.401V4.13281H96.499V9.52773H92.4927Z" fill="#242E7C"/>
<path d="M105.208 4.6636V7.86574H117.811V12.4688H113.491V9.52773H109.589V12.4688H104.555V15.5665H124.169V17.0632H128.123V11.1375H131.328V7.86574H128.123V4.13281H124.169V12.4688H121.66V4.6636H105.208Z" fill="#242E7C"/>
<path d="M117.384 16.4023C111.462 16.4023 106.654 18.9345 106.654 22.067C106.654 25.1995 111.462 27.723 117.384 27.723C123.306 27.723 128.114 25.2343 128.114 22.067C128.114 18.8997 123.306 16.4023 117.384 16.4023ZM117.384 24.7819C113.752 24.7819 110.809 23.5637 110.809 22.067C110.809 20.5703 113.752 19.3434 117.384 19.3434C121.016 19.3434 123.96 20.5616 123.96 22.067C123.96 23.5724 121.059 24.7819 117.384 24.7819Z" fill="#242E7C"/>
<path d="M153.493 4.1416V6.75204H147.797C146.05 5.26699 143.82 4.4716 141.526 4.51576C136.902 4.51576 133.139 7.49167 133.139 11.155C133.139 14.8183 136.902 17.8029 141.526 17.8029C143.969 17.8555 146.334 16.9459 148.11 15.2708H153.493V17.7333H157.125V4.1416H153.493ZM141.526 14.6704C139.027 14.6704 136.997 13.0867 136.997 11.1202C136.997 9.15365 139.027 7.57868 141.526 7.57868C144.026 7.57868 146.064 9.16235 146.064 11.1202C146.064 13.078 144.035 14.6704 141.526 14.6704ZM153.493 12.2601H149.8C149.881 11.8855 149.922 11.5034 149.922 11.1202C149.922 10.6375 149.854 10.1573 149.722 9.69314H153.502L153.493 12.2601Z" fill="#242E7C"/>
<path d="M135.438 19.0732V22.1188H153.493V27.679H157.125V19.0732H135.438Z" fill="#242E7C"/>
<path d="M168.873 5.58594L160.121 20.2653L163.378 22.0752L168.873 13.0605L174.595 22.0752L177.957 20.2653L168.873 5.58594Z" fill="#242E7C"/>
<path d="M183 4.62012H179.368V27.679H183V4.62012Z" fill="#242E7C"/>
<path d="M51.6721 36.7032V32.3525H53.1266C53.3926 32.3293 53.6603 32.3702 53.9073 32.4716C54.1543 32.5731 54.3733 32.7321 54.5462 32.9355C54.8627 33.4202 55.0153 33.9936 54.9816 34.5713C54.9812 34.7701 54.9608 34.9684 54.9207 35.163C54.8687 35.4748 54.7498 35.7716 54.5723 36.0332C54.3906 36.3071 54.1199 36.5099 53.8059 36.6075C53.5857 36.6733 53.3562 36.7027 53.1266 36.6945L51.6721 36.7032ZM50.8447 37.3558H53.2659C53.7179 37.3875 54.1689 37.2813 54.5593 37.0514C54.9496 36.8214 55.2609 36.4785 55.4519 36.068C55.6934 35.5568 55.8155 34.9974 55.809 34.4321C55.8393 33.742 55.6232 33.0636 55.1994 32.5178C54.9692 32.2323 54.6751 32.0048 54.3407 31.8537C54.0064 31.7025 53.6412 31.632 53.2746 31.6477H50.8447V37.3558Z" fill="#283583"/>
<path d="M58.091 35.0317L59.0664 32.5257L59.9983 35.0317H58.091ZM56.3491 37.355H57.2201L57.882 35.6147H60.2683L60.9041 37.355H61.775L59.5716 31.6816H58.6397L56.3491 37.355Z" fill="#283583"/>
<path d="M62.498 31.6816H66.9311V32.3778H63.2993V34.1181H66.6611V34.7707H63.2993V36.7024H66.9833V37.3724H62.498V31.6816Z" fill="#283583"/>
<path d="M70.9721 35.6756C70.996 36.0575 70.9179 36.4389 70.7457 36.7807C70.5717 37.038 70.33 37.2424 70.0473 37.3713C69.7646 37.5003 69.4517 37.5488 69.1431 37.5116C68.7267 37.5242 68.3174 37.4022 67.9761 37.1636C67.8001 37.0149 67.6636 36.8251 67.5785 36.6111C67.4934 36.3971 67.4625 36.1655 67.4884 35.9367V35.5277H68.2635V35.9367C68.2455 36.1946 68.3265 36.4497 68.4899 36.6502C68.5799 36.7354 68.6871 36.8004 68.8042 36.8409C68.9214 36.8815 69.0458 36.8965 69.1693 36.8851C69.3395 36.9092 69.513 36.8823 69.668 36.808C69.823 36.7337 69.9525 36.6152 70.0402 36.4675C70.1407 36.1499 70.182 35.8166 70.1621 35.4842V31.6816H70.9895L70.9721 35.6756Z" fill="#283583"/>
<path d="M72.2178 31.6816H76.6421V32.3778H73.019V34.1181H76.3808V34.7707H73.019V36.7024H76.7031V37.3724H72.2178V31.6816Z" fill="#283583"/>
<path d="M80.3956 36.8338C80.0887 36.8628 79.7791 36.8197 79.4918 36.7079C79.2045 36.5961 78.9473 36.4187 78.7409 36.1899C78.3927 35.7332 78.2114 35.1713 78.227 34.5975C78.2036 34.2739 78.2446 33.9488 78.3478 33.6411C78.4509 33.3334 78.6141 33.0492 78.828 32.805C79.0288 32.6025 79.2695 32.4439 79.5348 32.339C79.8002 32.2342 80.0844 32.1855 80.3695 32.1959C80.6538 32.1812 80.938 32.228 81.2025 32.3331C81.4671 32.4382 81.7058 32.5992 81.9023 32.805C82.2891 33.2531 82.4887 33.8325 82.4597 34.4235C82.4736 35.02 82.3033 35.6064 81.972 36.1029C81.7963 36.3519 81.5582 36.5505 81.2816 36.6788C81.0049 36.807 80.6994 36.8605 80.3956 36.8338ZM80.3173 31.5346C79.8752 31.5068 79.433 31.5874 79.0292 31.7694C78.6254 31.9514 78.2723 32.2292 78.0006 32.5788C77.5825 33.148 77.3651 33.8395 77.3822 34.5453C77.3559 35.3095 77.6133 36.0564 78.1051 36.6424C78.7199 37.2197 79.5368 37.533 80.3804 37.5151C81.2239 37.4972 82.0268 37.1495 82.6165 36.5466C83.09 35.9492 83.334 35.2023 83.3045 34.4409C83.3495 33.745 83.1492 33.0554 82.7384 32.4917C82.4383 32.1536 82.0628 31.8908 81.6422 31.7245C81.2216 31.5582 80.7677 31.4932 80.3173 31.5346Z" fill="#283583"/>
<path d="M84.2017 31.6816H85.1771L88.2079 36.2673V31.6816H88.9918V37.355H88.0686L84.9942 32.778V37.355H84.2017V31.6816Z" fill="#283583"/>
<path d="M94.7659 31.6816H95.9503L97.6922 36.4849L99.4341 31.6816H100.61V37.355H99.8173V34.0049C99.8173 33.8918 99.8173 33.7004 99.8173 33.4306C99.8173 33.1609 99.8173 32.8824 99.8173 32.5605L98.0754 37.3463H97.2654L95.5236 32.5605V32.7345C95.5236 32.8737 95.5236 33.0913 95.5236 33.3697C95.5236 33.6482 95.5236 33.8657 95.5236 33.9962V37.3463H94.7397L94.7659 31.6816Z" fill="#283583"/>
<path d="M101.829 31.6816H106.254V32.3778H102.613V34.1181H105.975V34.7707H102.613V36.7024H106.306V37.3724H101.812L101.829 31.6816Z" fill="#283583"/>
<path d="M111.714 31.6816V32.3517H109.668V37.355H108.797V32.3517H106.759V31.6816H111.714Z" fill="#283583"/>
<path d="M113.343 34.2841V32.3524H115.277C115.5 32.3423 115.723 32.3809 115.93 32.4655C116.077 32.5453 116.198 32.6657 116.278 32.8123C116.358 32.9588 116.395 33.1254 116.383 33.2921C116.398 33.4387 116.375 33.5866 116.317 33.722C116.259 33.8575 116.168 33.976 116.052 34.0666C115.789 34.2219 115.486 34.2975 115.181 34.2841H113.343ZM112.516 37.3557H113.343V34.9193H115.137C115.381 34.9042 115.625 34.9429 115.851 35.0324C115.986 35.1016 116.097 35.2085 116.171 35.3399C116.245 35.4713 116.28 35.6215 116.27 35.7721L116.339 36.7205C116.328 36.8682 116.328 37.0166 116.339 37.1643C116.35 37.2307 116.371 37.2951 116.4 37.3557H117.419V37.2339C117.35 37.2017 117.289 37.1533 117.242 37.0927C117.195 37.0322 117.163 36.9612 117.149 36.8858C117.117 36.7254 117.099 36.5623 117.097 36.3986V35.6415C117.103 35.3851 117.03 35.133 116.888 34.9193C116.747 34.7561 116.563 34.6355 116.357 34.5712C116.607 34.4505 116.825 34.2714 116.992 34.0492C117.158 33.7903 117.237 33.4857 117.219 33.179C117.238 32.8916 117.164 32.6056 117.007 32.364C116.85 32.1223 116.619 31.9381 116.348 31.839C115.993 31.7023 115.614 31.6372 115.233 31.6476H112.481L112.516 37.3557Z" fill="#283583"/>
<path d="M121.138 36.8336C120.831 36.8641 120.521 36.8216 120.233 36.7097C119.945 36.5978 119.688 36.4197 119.483 36.1897C119.135 35.7331 118.953 35.1712 118.969 34.5974C118.946 34.2737 118.987 33.9487 119.09 33.641C119.193 33.3333 119.356 33.0491 119.57 32.8049C119.77 32.6046 120.01 32.4479 120.274 32.3446C120.537 32.2413 120.82 32.1936 121.103 32.2045C121.388 32.189 121.674 32.2355 121.94 32.3406C122.206 32.4457 122.446 32.6071 122.644 32.8136C123.031 33.2616 123.231 33.8411 123.202 34.432C123.216 35.0286 123.045 35.6149 122.714 36.1114C122.537 36.3589 122.299 36.5558 122.022 36.6825C121.746 36.8092 121.441 36.8613 121.138 36.8336ZM121.059 31.5344C120.617 31.5067 120.175 31.5873 119.771 31.7693C119.367 31.9512 119.014 32.2291 118.743 32.5786C118.325 33.1478 118.107 33.8394 118.124 34.5452C118.099 35.3076 118.353 36.053 118.838 36.6422C119.123 36.9354 119.466 37.1647 119.846 37.3147C120.226 37.4647 120.634 37.5321 121.042 37.5124C121.476 37.5396 121.911 37.4666 122.313 37.2991C122.714 37.1316 123.072 36.8741 123.358 36.5465C123.832 35.9491 124.076 35.2022 124.047 34.4407C124.075 33.7495 123.863 33.0698 123.446 32.5177C123.151 32.1809 122.782 31.9168 122.368 31.7462C121.954 31.5756 121.506 31.5031 121.059 31.5344Z" fill="#283583"/>
<path d="M128.697 33.318C128.711 33.4653 128.687 33.6137 128.628 33.7492C128.569 33.8847 128.476 34.0029 128.358 34.0925C128.094 34.2464 127.792 34.3219 127.487 34.31H125.876V32.3522H127.487C127.739 32.3386 127.992 32.3801 128.227 32.474C128.38 32.5525 128.507 32.6746 128.59 32.8248C128.674 32.975 128.711 33.1467 128.697 33.318ZM125.031 37.3555H125.858V34.9626H127.739C127.988 34.982 128.238 34.9477 128.473 34.8622C128.707 34.7766 128.92 34.6417 129.098 34.4666C129.39 34.1525 129.549 33.7379 129.542 33.3093C129.555 33.086 129.517 32.8628 129.431 32.6563C129.345 32.4498 129.213 32.2655 129.046 32.1172C128.678 31.8184 128.213 31.6637 127.739 31.6821H125.031V37.3555Z" fill="#283583"/>
<path d="M133.252 36.8336C132.945 36.8627 132.636 36.8196 132.349 36.7078C132.061 36.596 131.804 36.4186 131.598 36.1897C131.249 35.7331 131.068 35.1712 131.084 34.5974C131.06 34.2737 131.101 33.9487 131.205 33.641C131.308 33.3333 131.471 33.0491 131.685 32.8049C131.886 32.604 132.127 32.4469 132.393 32.3436C132.658 32.2403 132.942 32.1929 133.226 32.2045C133.511 32.1897 133.795 32.2365 134.059 32.3417C134.324 32.4468 134.563 32.6078 134.759 32.8136C135.146 33.2616 135.345 33.8411 135.316 34.432C135.33 35.0286 135.16 35.6149 134.829 36.1114C134.652 36.3589 134.414 36.5558 134.137 36.6825C133.86 36.8092 133.555 36.8613 133.252 36.8336ZM133.174 31.5344C132.732 31.5067 132.29 31.5873 131.886 31.7693C131.482 31.9512 131.129 32.2291 130.857 32.5786C130.439 33.1478 130.222 33.8394 130.239 34.5452C130.214 35.3076 130.468 36.053 130.953 36.6422C131.239 36.9361 131.584 37.1657 131.965 37.3157C132.347 37.4658 132.756 37.5328 133.165 37.5124C133.591 37.5315 134.016 37.4546 134.408 37.2874C134.8 37.1202 135.149 36.867 135.43 36.5465C135.903 35.9491 136.147 35.2022 136.118 34.4407C136.147 33.7495 135.934 33.0698 135.517 32.5177C135.222 32.1809 134.853 31.9168 134.439 31.7462C134.025 31.5756 133.577 31.5031 133.13 31.5344H133.174Z" fill="#283583"/>
<path d="M137.032 31.6816H137.86V36.685H140.899V37.355H137.032V31.6816Z" fill="#283583"/>
<path d="M141.831 31.6816H142.702V37.355H141.831V31.6816Z" fill="#283583"/>
<path d="M148.311 31.6816V32.3517H146.264V37.355H145.446V32.3517H143.408V31.6816H148.311Z" fill="#283583"/>
<path d="M149.626 35.0317L150.593 32.5257L151.542 35.0317H149.626ZM147.884 37.355H148.755L149.417 35.6147H151.803L152.439 37.355H153.31L151.107 31.6816H150.175L147.884 37.355Z" fill="#283583"/>
<path d="M153.946 31.6816H154.913L157.943 36.2673V31.6816H158.736V37.355H157.804L154.73 32.778V37.355H153.946V31.6816Z" fill="#283583"/>
<path d="M168.821 32.0995C169.215 32.4205 169.468 32.8825 169.527 33.3873H168.717C168.644 33.0451 168.457 32.7381 168.185 32.5171C167.856 32.2906 167.461 32.1803 167.062 32.2039C166.796 32.1918 166.53 32.2377 166.283 32.3383C166.037 32.439 165.815 32.5921 165.634 32.7869C165.231 33.3005 165.035 33.9462 165.085 34.5968C165.06 35.1772 165.235 35.7486 165.581 36.2152C165.759 36.4267 165.984 36.5931 166.238 36.7005C166.493 36.8079 166.769 36.8533 167.044 36.8331C167.308 36.8471 167.57 36.7947 167.807 36.6806C168.045 36.5666 168.25 36.3945 168.403 36.1804C168.583 35.917 168.71 35.6216 168.778 35.3103H169.579C169.521 35.8775 169.273 36.4083 168.873 36.8157C168.617 37.0609 168.314 37.2514 167.981 37.3756C167.649 37.4998 167.294 37.555 166.94 37.5379C166.306 37.5557 165.686 37.3423 165.198 36.9375C164.867 36.627 164.611 36.2459 164.448 35.8225C164.285 35.3991 164.22 34.9444 164.257 34.4924C164.228 33.7439 164.48 33.0114 164.963 32.4388C165.229 32.148 165.555 31.9192 165.92 31.7688C166.284 31.6184 166.677 31.5501 167.071 31.5687C167.699 31.529 168.321 31.7175 168.821 32.0995Z" fill="#283583"/>
<path d="M170.703 31.6816H171.574V37.355H170.703V31.6816Z" fill="#283583"/>
<path d="M177.217 31.6816V32.3517H175.171V37.355H174.343V32.3517H172.305V31.6816H177.217Z" fill="#283583"/>
<path d="M177.435 31.6816H178.401L180.143 34.4139L181.885 31.6816H182.895L180.605 35.0752V37.355H179.734V35.0752L177.435 31.6816Z" fill="#283583"/>
</g>
<rect x="207" y="2" width="130" height="36" rx="5" fill="#226B5F"/>
<path d="M201 20L207.75 14.8038L207.75 25.1962L201 20Z" fill="#226B5F"/>
<path d="M238.93 27.252C242.458 27.252 244.87 24.624 244.87 20.286C244.87 15.966 242.458 13.446 238.93 13.446C235.384 13.446 232.972 15.948 232.972 20.286C232.972 24.624 235.384 27.252 238.93 27.252ZM238.93 24.948C236.932 24.948 235.69 23.13 235.69 20.286C235.69 17.442 236.932 15.732 238.93 15.732C240.91 15.732 242.17 17.442 242.17 20.286C242.17 23.13 240.91 24.948 238.93 24.948ZM247.274 30.87H249.92V27.81L249.83 26.172C250.586 26.874 251.45 27.252 252.314 27.252C254.528 27.252 256.598 25.272 256.598 21.816C256.598 18.702 255.122 16.686 252.638 16.686C251.558 16.686 250.514 17.244 249.686 17.982H249.632L249.416 16.938H247.274V30.87ZM251.738 25.074C251.198 25.074 250.55 24.894 249.92 24.336V19.89C250.604 19.188 251.216 18.846 251.882 18.846C253.286 18.846 253.88 19.908 253.88 21.852C253.88 24.03 252.944 25.074 251.738 25.074ZM263.25 27.252C264.492 27.252 265.752 26.838 266.742 26.154L265.86 24.516C265.122 24.966 264.402 25.218 263.592 25.218C262.098 25.218 261.018 24.372 260.784 22.716H267.012C267.066 22.464 267.12 21.996 267.12 21.492C267.12 18.702 265.698 16.686 262.908 16.686C260.532 16.686 258.228 18.702 258.228 21.978C258.228 25.308 260.424 27.252 263.25 27.252ZM260.748 20.952C260.964 19.476 261.9 18.72 262.962 18.72C264.258 18.72 264.87 19.584 264.87 20.952H260.748ZM269.317 27H271.963V20.07C272.701 19.35 273.223 18.954 274.051 18.954C275.023 18.954 275.473 19.476 275.473 21.06V27H278.119V20.718C278.119 18.198 277.165 16.686 275.005 16.686C273.637 16.686 272.593 17.406 271.729 18.27H271.675L271.459 16.938H269.317V27ZM283.432 27H286.132L288.04 20.07C288.436 18.684 288.814 17.154 289.174 15.714H289.246C289.624 17.136 290.002 18.684 290.398 20.07L292.306 27H295.096L290.83 13.68H287.698L283.432 27ZM286.078 23.58H292.414V21.528H286.078V23.58ZM296.673 27H299.337V22.266H301.119C303.981 22.266 306.249 20.916 306.249 17.874C306.249 14.706 303.981 13.68 301.047 13.68H296.673V27ZM299.337 20.16V15.804H300.849C302.685 15.804 303.657 16.308 303.657 17.874C303.657 19.386 302.775 20.16 300.939 20.16H299.337ZM308.679 27H311.343V13.68H308.679V27Z" fill="white"/>
<defs>
<clipPath id="clip0_1018_40">
<rect width="183" height="39" fill="white"/>
</clipPath>
</defs>
</svg>
